<mxfile host="65bd71144e">
    <diagram id="ODGl28nsxj7dRQY_AWoq" name="Page-1">
        <mxGraphModel dx="1853" dy="769" grid="1" gridSize="10" guides="1" tooltips="1" connect="1" arrows="1" fold="1" page="1" pageScale="1" pageWidth="850" pageHeight="1100" math="0" shadow="0">
            <root>
                <mxCell id="0"/>
                <mxCell id="1" parent="0"/>
                <mxCell id="3" style="edgeStyle=none;html=1;exitX=1;exitY=0.5;exitDx=0;exitDy=0;" parent="1" source="2" target="4" edge="1">
                    <mxGeometry relative="1" as="geometry">
                        <mxPoint x="710.0000000000002" y="120" as="targetPoint"/>
                        <Array as="points">
                            <mxPoint x="560" y="120"/>
                        </Array>
                    </mxGeometry>
                </mxCell>
                <mxCell id="6" value="" style="edgeStyle=none;html=1;" parent="1" source="2" target="5" edge="1">
                    <mxGeometry relative="1" as="geometry"/>
                </mxCell>
                <mxCell id="2" value="check number of arguments" style="rounded=1;whiteSpace=wrap;html=1;" parent="1" vertex="1">
                    <mxGeometry x="350" y="90" width="120" height="60" as="geometry"/>
                </mxCell>
                <mxCell id="4" value="Error display&lt;br&gt;Quit end program" style="rounded=1;whiteSpace=wrap;html=1;" parent="1" vertex="1">
                    <mxGeometry x="650.0000000000002" y="90" width="120" height="60" as="geometry"/>
                </mxCell>
                <mxCell id="10" style="edgeStyle=none;html=1;exitX=1;exitY=0.5;exitDx=0;exitDy=0;" parent="1" source="5" edge="1">
                    <mxGeometry relative="1" as="geometry">
                        <mxPoint x="500" y="120" as="targetPoint"/>
                        <Array as="points">
                            <mxPoint x="500" y="260"/>
                        </Array>
                    </mxGeometry>
                </mxCell>
                <mxCell id="12" value="" style="edgeStyle=none;html=1;" parent="1" source="5" target="11" edge="1">
                    <mxGeometry relative="1" as="geometry"/>
                </mxCell>
                <mxCell id="5" value="check filename &lt;br&gt;is valid&lt;br&gt;and ends with &quot;.cub&quot;&lt;br&gt;" style="whiteSpace=wrap;html=1;rounded=1;" parent="1" vertex="1">
                    <mxGeometry x="350" y="230" width="120" height="60" as="geometry"/>
                </mxCell>
                <mxCell id="7" value="wrong" style="text;html=1;strokeColor=none;fillColor=none;align=center;verticalAlign=middle;whiteSpace=wrap;rounded=0;" parent="1" vertex="1">
                    <mxGeometry x="520" y="90" width="60" height="30" as="geometry"/>
                </mxCell>
                <mxCell id="9" value="right" style="text;html=1;strokeColor=none;fillColor=none;align=center;verticalAlign=middle;whiteSpace=wrap;rounded=0;" parent="1" vertex="1">
                    <mxGeometry x="350" y="180" width="60" height="30" as="geometry"/>
                </mxCell>
                <mxCell id="13" style="edgeStyle=none;html=1;" parent="1" source="11" edge="1">
                    <mxGeometry relative="1" as="geometry">
                        <mxPoint x="500" y="260" as="targetPoint"/>
                        <Array as="points">
                            <mxPoint x="500" y="400"/>
                        </Array>
                    </mxGeometry>
                </mxCell>
                <mxCell id="24" value="" style="edgeStyle=none;html=1;fontColor=#f8f7f7;" parent="1" source="11" target="23" edge="1">
                    <mxGeometry relative="1" as="geometry"/>
                </mxCell>
                <mxCell id="11" value="open file retreive the fd and check the if it's &amp;gt; 0" style="whiteSpace=wrap;html=1;rounded=1;" parent="1" vertex="1">
                    <mxGeometry x="350" y="370" width="120" height="60" as="geometry"/>
                </mxCell>
                <mxCell id="16" value="&amp;lt; 0" style="text;html=1;strokeColor=none;fillColor=none;align=center;verticalAlign=middle;whiteSpace=wrap;rounded=0;" parent="1" vertex="1">
                    <mxGeometry x="500" y="320" width="60" height="30" as="geometry"/>
                </mxCell>
                <mxCell id="17" value="right" style="text;html=1;strokeColor=none;fillColor=none;align=center;verticalAlign=middle;whiteSpace=wrap;rounded=0;" parent="1" vertex="1">
                    <mxGeometry x="350" y="310" width="60" height="30" as="geometry"/>
                </mxCell>
                <mxCell id="21" value="&lt;h1&gt;Rules for .cub file&lt;/h1&gt;&lt;div&gt;&lt;span style=&quot;&quot;&gt;&#9;&lt;/span&gt;&lt;b&gt;&lt;span style=&quot;&quot;&gt;&#9;&lt;/span&gt;GENERAL RULE&lt;/b&gt;&lt;/div&gt;&lt;div&gt;&lt;span style=&quot;background-color: initial;&quot;&gt;&lt;span style=&quot;&quot;&gt;&#9;&lt;/span&gt;&lt;span style=&quot;&quot;&gt;&#9;&lt;/span&gt;&lt;span style=&quot;&quot;&gt;&#9;&lt;/span&gt;spaces are ignored&lt;/span&gt;&lt;/div&gt;&lt;div&gt;&lt;br&gt;&lt;/div&gt;&lt;div&gt;&lt;br&gt;&lt;/div&gt;&lt;div&gt;&lt;span style=&quot;background-color: initial;&quot;&gt;&lt;span style=&quot;&quot;&gt;&#9;&lt;/span&gt;&lt;b&gt;&lt;font style=&quot;font-size: 14px;&quot;&gt;&lt;span style=&quot;&quot;&gt;&#9;&lt;/span&gt;&lt;span style=&quot;&quot;&gt;&#9;&lt;/span&gt;map&lt;/font&gt;&lt;/b&gt;&lt;/span&gt;&lt;br&gt;&lt;ul&gt;&lt;li&gt;&lt;span style=&quot;background-color: initial;&quot;&gt;the map most be at the end of the file&amp;nbsp;&lt;/span&gt;&lt;/li&gt;&lt;li&gt;&lt;span style=&quot;background-color: initial;&quot;&gt;1 wall&lt;/span&gt;&lt;br&gt;&lt;/li&gt;&lt;li&gt;&lt;span style=&quot;background-color: initial;&quot;&gt;0 empty space&lt;/span&gt;&lt;br&gt;&lt;/li&gt;&lt;li&gt;&lt;span style=&quot;background-color: initial;&quot;&gt;N(north), E(East), W(west), W(west) position of the player and where he is facing&lt;/span&gt;&lt;br&gt;&lt;/li&gt;&lt;li&gt;&lt;span style=&quot;background-color: initial;&quot;&gt;there most be no empty lines between each line for the map&lt;/span&gt;&lt;/li&gt;&lt;/ul&gt;&lt;/div&gt;&lt;div&gt;EACH THE DIFFERENT TYPE OF FOLLOWING ELEMENTS CAN BE SEPARATED BY as many empty lines as you want&amp;nbsp;&amp;nbsp;&lt;/div&gt;&lt;div&gt;&lt;br&gt;&lt;/div&gt;&lt;div&gt;&lt;span style=&quot;&quot;&gt;&#9;&lt;/span&gt;&lt;b&gt;&lt;span style=&quot;&quot;&gt;&#9;&lt;/span&gt;&lt;span style=&quot;&quot;&gt;&#9;&lt;/span&gt;TEXTURE&lt;/b&gt;&lt;br&gt;&lt;/div&gt;&lt;div&gt;&lt;ul&gt;&lt;li&gt;NO ./path_to_the_north_texture&lt;/li&gt;&lt;li&gt;SO ./path_to_the_south_texture&lt;/li&gt;&lt;li&gt;WE ./path_to_the_west_texture&lt;/li&gt;&lt;li&gt;EA ./path_to_the_west_texture&lt;/li&gt;&lt;/ul&gt;&lt;div&gt;&lt;br&gt;&lt;/div&gt;&lt;/div&gt;&lt;div&gt;&lt;br&gt;&lt;/div&gt;&lt;div&gt;&lt;div&gt;&lt;b&gt;&lt;span style=&quot;&quot;&gt;&#9;&lt;/span&gt;COLOR&lt;/b&gt;&lt;br&gt;&lt;/div&gt;&lt;div&gt;&lt;ul&gt;&lt;li&gt;F&amp;nbsp; INT, INT, INT (COLOR THE FLOOR)&amp;nbsp; &amp;nbsp; &amp;nbsp;(0 &amp;gt;= color &amp;lt;= 255)&lt;/li&gt;&lt;li&gt;C INT, INT, INT (COLOR THE CEILING) (0 &amp;gt;= color &amp;lt;= 255)&lt;/li&gt;&lt;/ul&gt;&lt;/div&gt;&lt;/div&gt;" style="text;html=1;spacing=5;spacingTop=-20;whiteSpace=wrap;overflow=hidden;rounded=0;" parent="1" vertex="1">
                    <mxGeometry x="-800" y="40" width="630" height="530" as="geometry"/>
                </mxCell>
                <mxCell id="32" value="" style="edgeStyle=none;html=1;fontColor=#f8f7f7;" parent="1" source="23" edge="1">
                    <mxGeometry relative="1" as="geometry">
                        <mxPoint x="850" y="540" as="targetPoint"/>
                    </mxGeometry>
                </mxCell>
                <mxCell id="23" value="read everything and store the lines in a chained list" style="whiteSpace=wrap;html=1;rounded=1;" parent="1" vertex="1">
                    <mxGeometry x="350" y="510" width="120" height="60" as="geometry"/>
                </mxCell>
                <mxCell id="27" value="right" style="text;html=1;strokeColor=none;fillColor=none;align=center;verticalAlign=middle;whiteSpace=wrap;rounded=0;" parent="1" vertex="1">
                    <mxGeometry x="350" y="460" width="60" height="30" as="geometry"/>
                </mxCell>
                <mxCell id="35" value="" style="edgeStyle=none;html=1;fontColor=#f8f7f7;" parent="1" source="33" target="34" edge="1">
                    <mxGeometry relative="1" as="geometry"/>
                </mxCell>
                <mxCell id="33" value="PARSING THE CHAINED LIST" style="ellipse;whiteSpace=wrap;html=1;fontColor=#f8f7f7;" parent="1" vertex="1">
                    <mxGeometry x="850" y="490" width="200" height="100" as="geometry"/>
                </mxCell>
                <mxCell id="37" value="" style="edgeStyle=none;html=1;fontColor=#f8f7f7;" parent="1" source="34" target="36" edge="1">
                    <mxGeometry relative="1" as="geometry"/>
                </mxCell>
                <mxCell id="40" value="" style="edgeStyle=none;html=1;fontColor=#f8f7f7;" parent="1" source="34" target="39" edge="1">
                    <mxGeometry relative="1" as="geometry"/>
                </mxCell>
                <mxCell id="41" style="edgeStyle=none;html=1;exitX=0.5;exitY=0;exitDx=0;exitDy=0;entryX=1;entryY=0.5;entryDx=0;entryDy=0;fontColor=#f8f7f7;" parent="1" source="34" target="4" edge="1">
                    <mxGeometry relative="1" as="geometry">
                        <Array as="points">
                            <mxPoint x="950" y="120"/>
                        </Array>
                    </mxGeometry>
                </mxCell>
                <mxCell id="34" value="CHECK THE FIRST CHARACTERS" style="rounded=1;whiteSpace=wrap;html=1;fontColor=#f8f7f7;" parent="1" vertex="1">
                    <mxGeometry x="890" y="260" width="120" height="60" as="geometry"/>
                </mxCell>
                <mxCell id="44" style="edgeStyle=none;html=1;exitX=0.5;exitY=0;exitDx=0;exitDy=0;fontColor=#f8f7f7;" parent="1" source="36" edge="1">
                    <mxGeometry relative="1" as="geometry">
                        <mxPoint x="950" y="119.53846153846155" as="targetPoint"/>
                    </mxGeometry>
                </mxCell>
                <mxCell id="49" style="edgeStyle=none;html=1;fontColor=#F8202F;" parent="1" source="36" edge="1">
                    <mxGeometry relative="1" as="geometry">
                        <mxPoint x="950" y="370" as="targetPoint"/>
                        <Array as="points">
                            <mxPoint x="700" y="370"/>
                        </Array>
                    </mxGeometry>
                </mxCell>
                <mxCell id="56" style="edgeStyle=none;html=1;exitX=0.5;exitY=1;exitDx=0;exitDy=0;fontColor=#FFFFFF;" parent="1" source="36" edge="1">
                    <mxGeometry relative="1" as="geometry">
                        <mxPoint x="1560" y="460" as="targetPoint"/>
                        <Array as="points">
                            <mxPoint x="700" y="460"/>
                        </Array>
                    </mxGeometry>
                </mxCell>
                <mxCell id="36" value="&lt;b&gt;&lt;font color=&quot;#f8202f&quot;&gt;TEXTURES&lt;/font&gt;&lt;/b&gt;&lt;br&gt;store and check for format errors. then check for next" style="rounded=1;whiteSpace=wrap;html=1;fontColor=#f8f7f7;" parent="1" vertex="1">
                    <mxGeometry x="640" y="210" width="120" height="110" as="geometry"/>
                </mxCell>
                <mxCell id="46" style="edgeStyle=none;html=1;exitX=0.5;exitY=0;exitDx=0;exitDy=0;fontColor=#f8f7f7;" parent="1" source="39" edge="1">
                    <mxGeometry relative="1" as="geometry">
                        <mxPoint x="950" y="120" as="targetPoint"/>
                    </mxGeometry>
                </mxCell>
                <mxCell id="50" style="edgeStyle=none;html=1;exitX=0.5;exitY=1;exitDx=0;exitDy=0;fontColor=#F8202F;" parent="1" source="39" edge="1">
                    <mxGeometry relative="1" as="geometry">
                        <mxPoint x="950" y="370" as="targetPoint"/>
                        <Array as="points">
                            <mxPoint x="1250" y="370"/>
                        </Array>
                    </mxGeometry>
                </mxCell>
                <mxCell id="57" style="edgeStyle=none;html=1;exitX=0.5;exitY=1;exitDx=0;exitDy=0;fontColor=#FFFFFF;" parent="1" source="39" edge="1">
                    <mxGeometry relative="1" as="geometry">
                        <mxPoint x="1560" y="460" as="targetPoint"/>
                        <Array as="points">
                            <mxPoint x="1250" y="460"/>
                        </Array>
                    </mxGeometry>
                </mxCell>
                <mxCell id="39" value="&lt;b&gt;&lt;font color=&quot;#f8202f&quot;&gt;COLORS&lt;/font&gt;&lt;/b&gt;&lt;br&gt;store and check for format errors. then check for next" style="whiteSpace=wrap;html=1;fontColor=#f8f7f7;rounded=1;" parent="1" vertex="1">
                    <mxGeometry x="1190" y="210" width="120" height="110" as="geometry"/>
                </mxCell>
                <mxCell id="43" value="doesnt march" style="text;html=1;strokeColor=none;fillColor=none;align=center;verticalAlign=middle;whiteSpace=wrap;rounded=0;fontColor=#f8f7f7;" parent="1" vertex="1">
                    <mxGeometry x="950" y="190" width="60" height="30" as="geometry"/>
                </mxCell>
                <mxCell id="45" value="format error" style="text;html=1;strokeColor=none;fillColor=none;align=center;verticalAlign=middle;whiteSpace=wrap;rounded=0;fontColor=#f8f7f7;rotation=-25;" parent="1" vertex="1">
                    <mxGeometry x="730" y="170" width="60" height="30" as="geometry"/>
                </mxCell>
                <mxCell id="48" value="format error" style="text;html=1;strokeColor=none;fillColor=none;align=center;verticalAlign=middle;whiteSpace=wrap;rounded=0;fontColor=#f8f7f7;rotation=25;" parent="1" vertex="1">
                    <mxGeometry x="1070" y="150" width="60" height="30" as="geometry"/>
                </mxCell>
                <mxCell id="52" value="&lt;font color=&quot;#ffffff&quot;&gt;next is colors&lt;/font&gt;" style="text;html=1;strokeColor=none;fillColor=none;align=center;verticalAlign=middle;whiteSpace=wrap;rounded=0;fontColor=#F8202F;" parent="1" vertex="1">
                    <mxGeometry x="800" y="370" width="60" height="30" as="geometry"/>
                </mxCell>
                <mxCell id="54" value="next is textures" style="text;html=1;strokeColor=none;fillColor=none;align=center;verticalAlign=middle;whiteSpace=wrap;rounded=0;fontColor=#FFFFFF;" parent="1" vertex="1">
                    <mxGeometry x="1090" y="370" width="60" height="30" as="geometry"/>
                </mxCell>
                <mxCell id="58" value="Next is map" style="text;html=1;strokeColor=none;fillColor=none;align=center;verticalAlign=middle;whiteSpace=wrap;rounded=0;fontColor=#FFFFFF;" parent="1" vertex="1">
                    <mxGeometry x="980" y="430" width="60" height="30" as="geometry"/>
                </mxCell>
                <mxCell id="59" value="Parse Map" style="rounded=1;whiteSpace=wrap;html=1;" vertex="1" parent="1">
                    <mxGeometry x="1560" y="430" width="180" height="60" as="geometry"/>
                </mxCell>
            </root>
        </mxGraphModel>
    </diagram>
</mxfile>